
        <svg xmlns:rdf="http://www.w3.org/1999/02/22-rdf-syntax-ns#" xmlns="http://www.w3.org/2000/svg" xmlns:cc="http://creativecommons.org/ns#" xmlns:xlink="http://www.w3.org/1999/xlink" xmlns:dc="http://purl.org/dc/elements/1.1/" x="0px" y="0px" width="501" height="151" viewBox="0 0 501 151" xml:space="preserve">
            <title>Anchoa mitchilli (Bay Anchovy)</title>
            <desc xmlns:ian_image_library="https://ian.umces.edu/media-library/">
                <ian_image_library:title>Anchoa mitchilli (Bay Anchovy)</ian_image_library:title>
                <ian_image_library:descr>Illustration of Anchoa mitchilli (Bay Anchovy)</ian_image_library:descr>
                <ian_image_library:scene>
                    <ian_image_library:contains>fish, bay, anchovy, Chordata, Actinopterygii, Clupeiformes, Engraulidae, Anchoa, mitchilli, Atlantic, marine</ian_image_library:contains>
                    <ian_image_library:when>2003-05-26</ian_image_library:when>
                </ian_image_library:scene>
            </desc>
            <metadata id="metadata-iil-622070d9484fcdb49d3dfe3eaa9fa0f8">
                <rdf:RDF>
                <cc:Work
                rdf:about="">
                <dc:format>image/svg+xml</dc:format>
                <dc:type
                rdf:resource="http://purl.org/dc/dcmitype/StillImage" />
                <cc:license
                rdf:resource="http://creativecommons.org/licenses/by-sa/3.0/" />
                <dc:title>Anchoa mitchilli (Bay Anchovy)</dc:title>
                <dc:date>2003-05-26</dc:date>
                <dc:creator>
                    <cc:Agent>
                        <dc:title></dc:title>
                    </cc:Agent>
                </dc:creator>
                <dc:rights>
                <cc:Agent>
                    <dc:title></dc:title>
                </cc:Agent>
                </dc:rights>
                <dc:publisher>
                <cc:Agent>
                    <dc:title>Integration and Application Network</dc:title>
                </cc:Agent>
                </dc:publisher>
                <dc:identifier>https://ian.umces.edu/media-library/anchoa-mitchilli-bay-anchovy/</dc:identifier>
                <dc:source>https://ian.umces.edu/media-library/anchoa-mitchilli-bay-anchovy/</dc:source>
                <dc:language>en-US</dc:language>
                <dc:subject>
                <rdf:Bag>
                    <rdf:li>fish, bay, anchovy, Chordata, Actinopterygii, Clupeiformes, Engraulidae, Anchoa, mitchilli, Atlantic, marine</rdf:li>
                </rdf:Bag>
                </dc:subject>
                <dc:coverage></dc:coverage>
                <dc:description>Illustration of Anchoa mitchilli (Bay Anchovy)</dc:description>
                <dc:contributor>
                <cc:Agent>
                    <dc:title></dc:title>
                </cc:Agent>
                </dc:contributor>
            </cc:Work>
            <cc:License
                rdf:about="http://creativecommons.org/licenses/by-sa/3.0/">
                <cc:permits
                rdf:resource="http://creativecommons.org/ns#Reproduction" />
                <cc:permits
                rdf:resource="http://creativecommons.org/ns#Distribution" />
                <cc:requires
                rdf:resource="http://creativecommons.org/ns#Notice" />
                <cc:requires
                rdf:resource="http://creativecommons.org/ns#Attribution" />
                <cc:permits
                rdf:resource="http://creativecommons.org/ns#DerivativeWorks" />
                <cc:requires
                rdf:resource="http://creativecommons.org/ns#ShareAlike" />
            </cc:License>
            </rdf:RDF>
            </metadata>
            
<path fill="#99B3C4" stroke="#77797C" stroke-width="1.039" d="M255.253,111.16c0,0,38.983,29.242,45.178,27.471
	c6.204-1.773,3.633-3.066,5.46-4.492c31.23-24.528,63.659-30.062,63.659-30.062l-114.287,7.088L255.253,111.16z"/>
<path fill="#99B3C4" stroke="#77797C" stroke-width="1.039" d="M237.514,38.506c0,0,46.965-38.096,50.516-38.096
	c3.545,0,0-0.893,1.759,5.31c-1.759,11.52,29.256,48.737,29.256,48.737l-81.534-15.951H237.514z"/>
<path fill="#DCE9F7" stroke="#77797C" stroke-width="1.039" d="M13.398,70.446c0,0-9.761,4.427-7.082,7.976
	c2.651,3.548,14.171,9.746,21.254,12.402c7.095,2.666,35.445,11.521,43.42,9.758c7.975-1.771,11.52-5.318,11.52-5.318L13.398,70.451
	V70.446z"/>
<linearGradient id="ian_symbols_57aa5dae48feb874e59c074fe80c4bcc" gradientUnits="userSpaceOnUse" x1="251.1787" y1="1.5742" x2="251.1787" y2="127.0815" gradientTransform="matrix(1 0 0 -1 0 152)">
	<stop  offset="0" style="stop-color:#779F95"/>
	<stop  offset="0.0901" style="stop-color:#7CA39C"/>
	<stop  offset="0.2161" style="stop-color:#8BB0AD"/>
	<stop  offset="0.3624" style="stop-color:#A2C5CC"/>
	<stop  offset="0.4831" style="stop-color:#BDDEF1"/>
	<stop  offset="0.5481" style="stop-color:#BFD0CF"/>
	<stop  offset="0.634" style="stop-color:#BDC2B0"/>
	<stop  offset="0.7072" style="stop-color:#B9B89E"/>
	<stop  offset="0.7584" style="stop-color:#B8B597"/>
	<stop  offset="1" style="stop-color:#779F95"/>
</linearGradient>
<path fill="url(#ian_symbols_57aa5dae48feb874e59c074fe80c4bcc)" d="M1.905,57.574c-3.559-5.073,134.128-44.235,219.667-29.266
	c85.538,14.959,168.923,46.6,205.372,50.619c36.446,4.031,67.731-8.736,73.103-3.633c5.384,5.116-36.94,22.688-40.756,30.963
	c-3.801,8.286,41.209,42.528,35.696,44.097c-5.508,1.57-52.527-22.697-79.65-36.573c-35.392-5.706-93.578-6.146-189.997,4.782
	C-14.387,101.314,5.463,62.663,1.899,57.579L1.905,57.574z"/>
<path fill="#99B3C4" d="M500.034,75.294c-5.37-5.104-36.655,7.664-73.102,3.633c-1.481-0.16-3.071-0.386-4.708-0.633
	c-5.628,11.219-10.329,23.072-9.206,35.134c0.772,0.118,1.557,0.233,2.307,0.353c27.125,13.876,74.144,38.144,79.651,36.573
	c5.512-1.567-39.498-35.81-35.697-44.097c3.824-8.283,46.148-25.853,40.763-30.97L500.034,75.294z"/>
<path fill="#99B3C4" stroke="#77797C" stroke-width="1.039" d="M174.609,110.279c0,0,30.128,23.921,36.324,23.921
	c6.203,0-12.413-24.805-12.413-24.805l-23.915,0.882L174.609,110.279z"/>
<linearGradient id="ian_symbols_cb24edc556961334a1c99d7435c43540" gradientUnits="userSpaceOnUse" x1="158.1177" y1="33.354" x2="158.1177" y2="84.2524" gradientTransform="matrix(1 0 0 -1 0 152)">
	<stop  offset="0.0393" style="stop-color:#BDDEF1"/>
	<stop  offset="0.0912" style="stop-color:#C2DFF2"/>
	<stop  offset="0.3347" style="stop-color:#D5E6F6"/>
	<stop  offset="0.5056" style="stop-color:#DCE9F7"/>
	<stop  offset="0.8764" style="stop-color:#D3D1BA"/>
</linearGradient>
<path fill="url(#ian_symbols_cb24edc556961334a1c99d7435c43540)" d="M215.371,118.247c13.292-3.544,13.292-3.544,19.495-21.267c6.202-17.724-32.781-29.232-32.781-29.232
	L85.125,68.63l-4.423,31.897c0.003,0,121.395,21.272,134.679,17.719L215.371,118.247z"/>
<path fill="none" stroke="#77797C" stroke-width="1.039" d="M0.586,57.314c-3.559-5.074,134.118-44.236,219.656-29.276
	c85.543,14.973,168.924,46.603,205.381,50.631c36.434,4.031,67.719-8.746,73.103-3.632c5.377,5.107-36.947,22.688-40.749,30.963
	c-3.82,8.277,41.189,42.528,35.676,44.098c-5.499,1.565-52.519-22.701-79.644-36.575c-35.391-5.705-93.579-6.146-189.986,4.772
	C-15.713,101.057,4.137,62.385,0.583,57.313L0.586,57.314z"/>
<linearGradient id="ian_symbols_bb1801f74a13d3845dd90046fc8df6dd" gradientUnits="userSpaceOnUse" x1="258.1758" y1="63.4771" x2="260.9995" y2="95.7679" gradientTransform="matrix(1 0 0 -1 0 152)">
	<stop  offset="0" style="stop-color:#FFFFFF"/>
	<stop  offset="0.1056" style="stop-color:#F9FCFE"/>
	<stop  offset="0.2532" style="stop-color:#E6F3FA"/>
	<stop  offset="0.4248" style="stop-color:#C9E4F3"/>
	<stop  offset="0.4831" style="stop-color:#BDDEF1"/>
	<stop  offset="0.5107" style="stop-color:#C2E0F2"/>
	<stop  offset="0.7106" style="stop-color:#E1EFF8"/>
	<stop  offset="0.8808" style="stop-color:#F5FAFD"/>
	<stop  offset="1" style="stop-color:#FFFFFF"/>
</linearGradient>
<path fill="url(#ian_symbols_bb1801f74a13d3845dd90046fc8df6dd)" d="M75.568,59.766c0,0,122.076-8.858,154.859-6.203c32.794,2.666,208.225,28.363,211.778,34.563
	c3.531,6.203-4.438-1.729-5.324,4.472c-0.879,6.214,5.29,7.095,6.17,11.489c0.894,4.407-170.086-30.963-213.5-32.736
	c-43.419-1.773-146,3.548-152.197-0.879c-6.196-4.436-1.781-10.701-1.781-10.701L75.568,59.766z"/>
<linearGradient id="ian_symbols_555e0d9579e04a943d0a6113d9953085" gradientUnits="userSpaceOnUse" x1="56.3569" y1="50.4946" x2="56.3569" y2="114.5063" gradientTransform="matrix(1 0 0 -1 0 152)">
	<stop  offset="0" style="stop-color:#DCE9F7"/>
	<stop  offset="0.0959" style="stop-color:#D5E6F6"/>
	<stop  offset="0.2296" style="stop-color:#C3E0F2"/>
	<stop  offset="0.264" style="stop-color:#BDDEF1"/>
	<stop  offset="0.278" style="stop-color:#BADBEE"/>
	<stop  offset="0.4744" style="stop-color:#A8C5D7"/>
	<stop  offset="0.6414" style="stop-color:#9DB8C9"/>
	<stop  offset="0.7584" style="stop-color:#99B3C4"/>
	<stop  offset="1" style="stop-color:#808285"/>
</linearGradient>
<path fill="url(#ian_symbols_555e0d9579e04a943d0a6113d9953085)" stroke="#77797C" stroke-width="1.039" d="M85.12,101.409c9.747,0.893,8.008-4.426,9.781-15.058
	c1.772-10.64-9.781-15.946-11.554-26.587c1.184-3.849,2.056-6.03,3.544-7.965C99.082,35.39,70.949,36.733,62.975,38.506
	c-7.976,1.776-18.617,3.547-25.699,13.295c-7.095,9.738-21.267,23.033-19.495,28.353C19.553,85.475,75.372,100.528,85.12,101.409z"
	/>
<linearGradient id="ian_symbols_847d8e9a4a7d0064dd92a9adaf7340d6" gradientUnits="userSpaceOnUse" x1="24.8691" y1="88.2432" x2="54.105" y2="88.2432" gradientTransform="matrix(1 0 0 -1 0 152)">
	<stop  offset="0" style="stop-color:#DCE9F7"/>
	<stop  offset="0.0959" style="stop-color:#D5E6F6"/>
	<stop  offset="0.2296" style="stop-color:#C3E0F2"/>
	<stop  offset="0.264" style="stop-color:#BDDEF1"/>
	<stop  offset="0.278" style="stop-color:#BADBEE"/>
	<stop  offset="0.4744" style="stop-color:#A8C5D7"/>
	<stop  offset="0.6414" style="stop-color:#9DB8C9"/>
	<stop  offset="0.7584" style="stop-color:#99B3C4"/>
	<stop  offset="1" style="stop-color:#FFFFFF"/>
</linearGradient>
<path fill="url(#ian_symbols_847d8e9a4a7d0064dd92a9adaf7340d6)" stroke="#77797C" stroke-width="1.039" d="M54.105,63.764c0,7.329-6.548,13.282-14.618,13.282
	s-14.618-5.954-14.618-13.282c0-7.342,6.547-13.296,14.618-13.296S54.105,56.421,54.105,63.764z"/>
<path stroke="#77797C" stroke-width="1.039" d="M46.13,63.31c0,3.184-2.773,5.763-6.202,5.763c-3.43,0-6.195-2.581-6.195-5.763
	c0-3.179,2.767-5.76,6.195-5.76C43.357,57.55,46.13,60.131,46.13,63.31z"/>
</svg>
