
        <svg xmlns:rdf="http://www.w3.org/1999/02/22-rdf-syntax-ns#" xmlns="http://www.w3.org/2000/svg" xmlns:cc="http://creativecommons.org/ns#" xmlns:xlink="http://www.w3.org/1999/xlink" xmlns:dc="http://purl.org/dc/elements/1.1/" x="0px" y="0px" width="414" height="500" viewBox="0 0 414 500" xml:space="preserve">
            <title>Mussels 2</title>
            <desc xmlns:ian_image_library="https://ian.umces.edu/media-library/">
                <ian_image_library:title>Mussels 2</ian_image_library:title>
                <ian_image_library:descr>Illustration of mussels with attached barnacle</ian_image_library:descr>
                <ian_image_library:scene>
                    <ian_image_library:contains>mussels, Mollusca, Bivalvia, bivalve, barnacle</ian_image_library:contains>
                    <ian_image_library:when>2011-01-18</ian_image_library:when>
                </ian_image_library:scene>
            </desc>
            <metadata id="metadata-iil-8fab5c00f37df5c4593b5f4367ca5abb">
                <rdf:RDF>
                <cc:Work
                rdf:about="">
                <dc:format>image/svg+xml</dc:format>
                <dc:type
                rdf:resource="http://purl.org/dc/dcmitype/StillImage" />
                <cc:license
                rdf:resource="http://creativecommons.org/licenses/by-sa/3.0/" />
                <dc:title>Mussels 2</dc:title>
                <dc:date>2011-01-18</dc:date>
                <dc:creator>
                    <cc:Agent>
                        <dc:title>Dieter Tracey
Department of Water Western Australia</dc:title>
                    </cc:Agent>
                </dc:creator>
                <dc:rights>
                <cc:Agent>
                    <dc:title>Dieter Tracey
Department of Water Western Australia</dc:title>
                </cc:Agent>
                </dc:rights>
                <dc:publisher>
                <cc:Agent>
                    <dc:title>Integration and Application Network</dc:title>
                </cc:Agent>
                </dc:publisher>
                <dc:identifier>https://ian.umces.edu/media-library/mussels-2/</dc:identifier>
                <dc:source>https://ian.umces.edu/media-library/mussels-2/</dc:source>
                <dc:language>en-US</dc:language>
                <dc:subject>
                <rdf:Bag>
                    <rdf:li>mussels, Mollusca, Bivalvia, bivalve, barnacle</rdf:li>
                </rdf:Bag>
                </dc:subject>
                <dc:coverage></dc:coverage>
                <dc:description>Illustration of mussels with attached barnacle</dc:description>
                <dc:contributor>
                <cc:Agent>
                    <dc:title></dc:title>
                </cc:Agent>
                </dc:contributor>
            </cc:Work>
            <cc:License
                rdf:about="http://creativecommons.org/licenses/by-sa/3.0/">
                <cc:permits
                rdf:resource="http://creativecommons.org/ns#Reproduction" />
                <cc:permits
                rdf:resource="http://creativecommons.org/ns#Distribution" />
                <cc:requires
                rdf:resource="http://creativecommons.org/ns#Notice" />
                <cc:requires
                rdf:resource="http://creativecommons.org/ns#Attribution" />
                <cc:permits
                rdf:resource="http://creativecommons.org/ns#DerivativeWorks" />
                <cc:requires
                rdf:resource="http://creativecommons.org/ns#ShareAlike" />
            </cc:License>
            </rdf:RDF>
            </metadata>
            
<path fill="#25180E" d="M274.591,500.75l-3.701-0.107c-0.205-1.045-21.025-104.092-28.213-118.223
	c-1.597-3.135-2.744-5.586-3.647-7.51c-3.164-6.748-3.164-6.748-8.818-8.262l1.538-1.367c7.358,1.973,7.627,2.539,10.908,9.541
	c0.898,1.924,2.046,4.355,3.638,7.49C253.536,396.551,273.731,496.502,274.591,500.75z"/>
<path fill="#25180E" d="M330.636,437.02l-3.271,0.547c-0.693-0.615-69.561-61.582-81.499-68.691
	c-2.671-1.602-4.697-2.871-6.299-3.867c-4.995-3.125-4.995-3.125-8.457-2.627l-1.621-1.572c6.157-0.879,7.339-0.146,12.998,3.398
	c1.582,0.996,3.589,2.246,6.235,3.828C260.899,375.281,327.794,434.51,330.636,437.02z"/>
<path fill="#25180E" d="M346.222,399.363l-2.563,0.996c-0.688-0.332-68.716-33.389-85.601-36.475
	c-3.862-0.713-6.694-1.299-8.926-1.758c-7.598-1.563-7.598-1.563-19.37-0.225l-1.426-1.602c12.529-1.416,13.35-1.406,21.904,0.352
	c2.192,0.449,4.971,1.025,8.76,1.719C276.808,365.643,343.395,397.986,346.222,399.363z"/>
<path fill="#25180E" d="M341.749,295.066c-3.091,1.924-75.84,47.129-88.652,51.973c-2.769,1.055-4.878,1.904-6.543,2.578
	c-6.025,2.441-7.275,2.949-13.179,1.035l1.87-1.27c3.33,1.074,3.33,1.074,8.579-1.055c1.685-0.674,3.818-1.543,6.616-2.598
	c12.544-4.746,87.422-51.279,88.174-51.748L341.749,295.066z"/>
<path fill="#25180E" d="M307.76,241.482c-2.021,3.184-49.648,78.125-61.064,85.439c-2.466,1.592-4.292,2.891-5.728,3.926
	c-3.081,2.217-4.487,3.223-7.075,3.223c-2.466-0.01-4.595-0.977-8.452-2.852l2.554-0.996c1.704,0.82,4.556,2.197,5.342,2.207
	c0.786,0,2.617-1.318,4.39-2.588c1.455-1.045,3.306-2.373,5.811-3.984c11.133-7.139,60.146-84.268,60.64-85.039L307.76,241.482z"/>
<path fill="#25180E" d="M367.779,323.807c-4.053,1.064-99.375,26.211-113.809,29.434c-3.184,0.713-5.645,1.279-7.583,1.719
	c-7.002,1.592-7.573,1.729-10.913,1.65l-0.386-1.641c2.412,0.059,2.412,0.059,9.214-1.494c1.943-0.449,4.409-1.006,7.607-1.729
	c14.336-3.193,112.627-29.121,113.618-29.385L367.779,323.807z"/>
<path fill="#25180E" d="M376.197,344.959c-1.084,0.088-108.423,9.189-122.847,11.006c-3.223,0.4-5.732,0.713-7.71,0.947
	c-6.753,0.811-6.753,0.811-7.856,1.572l-3.208-1.035c1.719-1.182,2.461-1.27,9.585-2.129c1.973-0.234,4.473-0.537,7.681-0.947
	c14.561-1.826,118.701-10.654,123.13-11.025L376.197,344.959z"/>
<path fill="#25180E" d="M332.657,474.813l-3.628,0.098c-12.285-25.205-88.652-106.895-92.28-109.199l2.578-0.986
	C244.659,367.127,321.148,451.209,332.657,474.813z"/>
<path fill="#25180E" d="M331.744,250.213c-11.65,8.008-32.48,31.738-52.622,54.678c-20.84,23.73-40.522,46.143-48.623,49.424
	l-2.725-1.289c7.593-3.076,28.062-26.387,47.856-48.926c20.2-23.008,41.089-46.797,52.905-54.922L331.744,250.213z"/>
<g>
	<path fill="#867269" d="M106.305,4.51C168.097-17.844,236.09,90.027,242.11,139.92c1.821,15.137-9.38,128.203-14.092,128.857
		c-1.816-1.465-14.004,61.113-34.863,50.322C158.644,301.17-53.182,62.205,106.305,4.51z"/>
	<path fill="#1C1E1E" d="M197.96,321.102c-1.704,0-3.438-0.449-5.146-1.338C167.658,306.697,40.812,168.865,46.989,75.418
		c2.261-34.16,22.129-58.252,59.058-71.611c5.605-2.031,11.46-3.057,17.402-3.057c56.162,0,113.735,92.09,119.404,139.082
		c0.962,7.959-1.582,41.25-4.595,70.029c-1.665,15.947-3.462,30.42-5.054,40.752c-2.729,17.725-4.072,18.721-4.951,18.887
		c-0.464,0.82-1.45,3.955-2.49,7.275C221.251,291.16,211.866,321.102,197.96,321.102z M123.449,2.244
		c-5.767,0-11.45,1.006-16.89,2.969C70.241,18.348,50.7,42,48.483,75.516c-6.138,92.891,120.005,229.922,145.02,242.92
		c1.494,0.771,2.998,1.162,4.458,1.162c12.807,0,21.972-29.229,26.376-43.271c2.227-7.109,2.632-8.242,3.511-8.32
		c1.597-1.875,5.073-21.133,9.067-59.688c2.91-28.125,5.376-60.625,4.453-68.301C235.753,93.465,178.883,2.244,123.449,2.244z"/>
</g>
<path fill="#736057" d="M81.862,80.408c-0.61-5.498,4.951-46.963-6.323-44.58c-3.867,0.811-10.269,10.02-12.769,12.998
	c-7.671,9.131-14.253,20.254-13.916,32.578c0.186,6.885,2.065,13.594,3.472,19.98c2.29,10.391,7.568,14.482,12.568,22.842
	c4.585,7.656,4.785,17.9,9.438,26.123c3.599,6.367,9.878,11.836,13.281,18.408c4.468,8.613,6.445,16.846,12.803,24.668
	c6.958,8.574,9.897,19.375,17.061,28.32c5.605,7.002,11.807,13.145,17.075,20.42c3.335,4.609,11.04,17.021,16.406,18.555
	c17.163,4.932-2.847-34.951-5.156-41.494c-5.986-16.934-19.907-29.385-26.763-45.703c-6.997-16.67-15.303-31.992-23.389-48.184
	C88.849,111.707,83.532,95.486,81.862,80.408z"/>
<path fill="#B59787" d="M71.813,44.939c-4.077,22.842-2.974,48.223,9.038,68.184c7.007,11.65,10.728,26.025,16.152,38.545
	c5.679,13.105,11.602,26.104,16.865,39.375c4.771,12.051,12.959,21.563,19.507,32.617c4.922,8.311,9.624,16.846,15.264,24.844
	c12.832,18.184,28.228,39.17,46.055,52.656c5.513,4.17,6.738,5.645,9.072-1.064c3.306-9.492,3.677-21.279,5.834-31.191
	c4.585-21.045,9.756-42.158,10.503-63.779c0.645-18.74,1.235-37.891,0.166-56.133c-0.552-9.375-2.007-18.135-3.286-27.637
	c-1.118-8.252-1.714-17.354-4.731-25.43c-7.895-21.113-22.163-44.844-36.235-62.129c-4.922-6.045-10.151-12.422-15.693-17.949
	c-5.684-5.664-9.795-5.596-16.421-7.832c-13.076-4.424-26.563-8.057-40.557-0.771c-6.152,3.193-10.879,7.041-16.152,11.719
	C77.531,27.527,74.142,31.902,71.813,44.939z"/>
<path fill="#CAB6A0" d="M205.832,210.76c0.781-12.695-2.319-25.654-2.227-38.33c0.225-31.514-13.032-59.004-25.22-86.982
	c-9.087-20.859-14.253-42.461-29.985-60.205c-8.364-9.443-11.343-16.406-24.355-17.109c-7.7-0.41-16.143-1.289-20.308,6.113
	C100.25,20.447,98,30.711,95.763,37.615c-3.926,12.08-2.559,19.805,0.869,32.51c1.338,4.961,2.07,9.238,2.793,14.258
	c1.572,10.898,7.793,17.119,12.695,26.348c1.797,3.379,3.071,8.057,3.994,11.816c2.524,10.322,6.509,19.18,10.576,29.15
	c5.723,14.053,8.105,29.141,14.18,42.617c7.52,16.689,21.597,29.395,27.891,46.172c7.441,19.834,14.6,38.721,30.913,54.609
	c7.69-3.779,5.234-17.256,5.107-23.857c-0.195-10.215,3.037-17.637,1.06-27.705C203.756,232.947,205.172,221.531,205.832,210.76z"/>
<path opacity="0.5" fill="#FBE4CF" enable-background="new    " d="M138.756,28.426c-15.991,10.117-0.806,26.973,4.624,40.254
	c5.908,14.463,8.179,30.137,14.697,45.068c3.55,8.145,9.238,15.83,12.939,24.268c3.56,8.115,2.603,16.807,6.24,24.18
	c2.983,6.045,10.171,12.803,16.147,4.814C209.991,144.852,146.872,23.289,138.756,28.426z"/>
<path fill="#1C1E1E" d="M196.579,315.213c-1.304,0-2.637-0.215-3.97-0.635c-7.72-2.422-39.219-33.184-69.097-74.004
	c-21.455-29.307-57.578-85.449-58.428-132.148c-0.605-33.223,16.421-56.23,50.61-68.379c4.897-1.738,10.005-2.617,15.176-2.617
	c29.834,0,56.133,28.672,69.15,45.762c18.281,24.004,32.88,54.209,36.323,75.156c3.589,21.836-11.548,108.369-12.192,112.041
	C223.8,272.234,215.343,315.213,196.579,315.213z M130.871,38.924c-5,0-9.937,0.85-14.673,2.539
	c-33.516,11.904-50.21,34.424-49.614,66.934c0.84,46.289,36.787,102.129,58.135,131.299c29.707,40.576,60.806,71.084,68.34,73.457
	c1.187,0.371,2.373,0.566,3.521,0.566c17.539,0,26.015-43.164,26.098-43.604c0.156-0.879,15.732-89.941,12.188-111.523
	c-3.408-20.723-17.891-50.664-36.035-74.492C185.978,67.225,160.06,38.924,130.871,38.924z"/>
<path fill="#1C1E1E" d="M197.458,309.52c-1.27,0-2.573-0.225-3.882-0.664c-7.041-2.373-33.779-28.672-59.663-64.463
	c-18.335-25.361-49.165-73.945-49.57-114.346C84.059,101.482,98.747,81.648,128,71.111c4.238-1.523,8.662-2.295,13.159-2.295
	c42.417,0,85.932,69.297,90.229,104.668c1.377,11.338-10.088,93.486-10.576,96.982C220.543,272.078,214.049,309.52,197.458,309.52z
	 M141.159,70.311c-4.321,0-8.579,0.742-12.651,2.217c-28.589,10.293-42.944,29.639-42.666,57.5
	c0.698,69.736,93.833,172.559,108.213,177.412c1.152,0.391,2.3,0.586,3.403,0.586c15.332,0,21.811-37.412,21.875-37.793
	c0.117-0.83,11.919-85.42,10.571-96.563C225.66,138.738,182.848,70.311,141.159,70.311z"/>
<path fill="#1C1E1E" d="M199.059,304.617c-0.942,0-1.909-0.176-2.881-0.537l-0.093-0.049l-2.974-1.631l-2.124-2.139
	c-32.031-32.197-107.036-107.588-95.4-156.768c3.97-16.787,17.681-29.219,40.747-36.953c3.745-1.25,7.646-1.885,11.587-1.885
	c22.236,0,41.265,19.619,50.63,31.318c13.33,16.65,23.618,37.705,25.61,52.402c1.27,9.355-6.836,78.75-7.183,81.709
	C216.773,271.512,211.817,304.617,199.059,304.617z M196.75,302.693c0.786,0.283,1.563,0.43,2.31,0.43
	c11.474,0,16.386-32.9,16.435-33.232c0.083-0.703,8.423-72.148,7.183-81.309c-3.726-27.49-38.657-82.432-74.755-82.432
	c-3.779,0-7.52,0.605-11.113,1.816c-22.544,7.559-35.923,19.619-39.766,35.869c-11.44,48.369,63.154,123.35,95.005,155.371
	l2.046,2.051L196.75,302.693z"/>
<path fill="#1C1E1E" d="M197.052,297.254c-1.011,0-2.007-0.361-2.969-1.055c-3.13-2.285-20.908-20.146-37.417-43.037
	c-14.536-20.156-31.06-48.584-27.217-69.531c2.271-12.393,11.348-20.84,26.978-25.107c2.188-0.605,4.448-0.908,6.724-0.908
	c16.421,0,30.386,15.225,37.251,24.307c9.78,12.93,17.006,28.789,17.978,39.453c0.605,6.611-8.311,53.477-8.691,55.469
	C209.146,278.973,204.289,297.254,197.052,297.254z M163.151,159.119c-2.139,0-4.272,0.283-6.328,0.85
	c-15.029,4.102-23.74,12.148-25.898,23.926c-3.75,20.439,12.593,48.477,26.958,68.389c15.645,21.689,33.682,40.225,37.085,42.705
	c0.708,0.518,1.387,0.762,2.085,0.762c5.146,0,9.814-13.877,11.177-19.229c0.083-0.439,9.248-48.604,8.662-55.01
	C215.016,200.965,188.957,159.119,163.151,159.119z"/>
<path fill="#1C1E1E" d="M195.739,291.58c-0.557,0-1.118-0.117-1.665-0.361l-0.151-0.059l-1.323-1.504
	c-14.507-16.494-44.692-50.82-38.325-72.783c2.178-7.529,8.53-12.881,18.877-15.918c1.421-0.42,2.891-0.625,4.365-0.625
	c16.758,0,32.778,27.168,33.876,41.035c0.342,4.287-5.41,34.551-5.654,35.84C205.314,278.729,201.535,291.58,195.739,291.58z
	 M194.821,289.91c0.308,0.117,0.61,0.176,0.918,0.176c3.96,0,7.51-9.551,8.545-13.223c2.046-10.762,5.878-32.109,5.615-35.381
	c-1.035-13.057-16.679-39.658-32.382-39.658c-1.333,0-2.661,0.195-3.945,0.566c-9.824,2.881-15.83,7.891-17.861,14.893
	c-6.138,21.182,24.805,56.357,38.018,71.377L194.821,289.91z"/>
<g>
	<path fill="#867269" d="M359.679,28.963c-67.764-40.42-172.49,71.279-190.942,128.74c-5.596,17.422-18.125,153.271-12.72,155.117
		c2.48-1.309,2.598,75.234,29.648,67.266C230.436,366.805,534.576,133.289,359.679,28.963z"/>
	<path fill="#1C1E1E" d="M181.847,381.414c-0.005,0-0.005,0-0.005,0c-18.169,0-22.671-39.619-24.834-58.662
		c-0.483-4.238-0.938-8.252-1.309-9.248c-0.918-0.332-2.339-1.406-1.509-23.271c0.474-12.549,1.65-30.01,3.315-49.199
		c3.003-34.6,7.578-74.414,10.518-83.564c15.161-47.197,92.988-137.871,159.619-137.871c11.807,0,22.71,2.93,32.417,8.721
		c40.444,24.131,58.359,57.002,53.257,97.725C399.327,237.576,218.487,371.131,185.88,380.809
		C184.499,381.209,183.141,381.414,181.847,381.414z M156.286,312.068c0.977,0.166,1.216,1.758,2.212,10.518
		c2.114,18.613,6.514,57.334,23.345,57.334c0,0,0,0,0.005,0c1.152,0,2.363-0.186,3.608-0.547
		c32.456-9.629,212.456-142.539,226.372-253.516c5.024-40.078-12.646-72.461-52.534-96.25c-9.473-5.654-20.122-8.516-31.65-8.516
		c-65.996,0-143.144,89.99-158.193,136.836C163.454,176.6,152.428,306.189,156.286,312.068z"/>
</g>
<path fill="#736057" d="M371.217,124.021c1.968-6.348,4.849-56.504,17.603-51.133c4.375,1.846,9.824,14.16,12.095,18.242
	c6.958,12.51,12.192,27.119,8.994,41.563c-1.792,8.086-5.537,15.566-8.647,22.773c-5.063,11.729-12.217,15.352-20.02,24.072
	c-7.144,7.979-9.717,20.01-17.075,28.652c-5.688,6.68-14.331,11.689-19.849,18.672c-7.222,9.141-11.431,18.389-20.708,26.172
	c-10.156,8.516-16.074,20.586-26.563,29.502c-8.198,6.973-16.909,12.813-24.775,20.195c-4.98,4.668-16.89,17.549-23.564,18.135
	c-21.367,1.904,11.309-40.566,15.522-47.744c10.913-18.604,30.156-30.117,41.953-47.793c12.046-18.057,25.332-34.238,38.55-51.484
	C355.851,159.324,365.816,141.404,371.217,124.021z"/>
<path fill="#B59787" d="M391.134,84.48c-0.386,27.861-7.471,57.539-26.172,78.33c-10.913,12.148-18.574,28.242-27.817,41.768
	c-9.678,14.15-19.624,28.125-28.853,42.588c-8.369,13.115-20.186,22.471-30.42,34.014c-7.695,8.672-15.181,17.666-23.657,25.811
	c-19.268,18.525-42.192,39.766-66.284,51.602c-7.441,3.652-9.229,5.117-10.454-3.32c-1.733-11.943,0.513-25.928,0.225-38.105
	c-0.61-25.85-1.904-51.924,2.139-77.578c3.511-22.246,7.168-44.961,12.578-66.221c2.788-10.928,6.499-20.918,10.176-31.836
	c3.193-9.482,5.961-20.068,11.367-28.906c14.111-23.086,36.333-47.822,56.855-65c7.183-6.006,14.795-12.324,22.593-17.588
	c7.988-5.391,12.817-4.375,21.138-5.498c16.426-2.236,33.154-3.457,47.998,8.32c6.519,5.176,11.221,10.781,16.372,17.5
	C388.36,62.645,391.358,68.582,391.134,84.48z"/>
<path fill="#CAB6A0" d="M195.382,249.471c1.973-15.146,8.574-29.717,11.353-44.678c6.909-37.207,28.798-66.611,49.536-96.816
	c15.459-22.52,26.47-46.816,49.053-64.16c12.017-9.219,17.114-16.758,32.612-14.619c9.175,1.27,19.326,2.148,22.554,11.836
	c2.7,8.105,3.013,20.713,4.082,29.355c1.875,15.137-1.494,23.936-8.428,38.135c-2.705,5.547-4.541,10.43-6.538,16.172
	c-4.336,12.49-13.086,18.418-20.967,28.174c-2.891,3.584-5.454,8.799-7.397,13.027c-5.327,11.592-12.041,21.123-19.102,31.953
	c-9.951,15.273-16.196,32.52-26.426,47.021c-12.661,17.959-32.148,29.736-43.389,48.086c-13.291,21.689-26.025,42.324-48.876,57.354
	c-8.208-6.221-2.246-21.553-0.596-29.297c2.559-12.002,0.435-21.494,5.059-32.91C192.78,276.102,193.712,262.322,195.382,249.471z"
	/>
<path opacity="0.5" fill="#FBE4CF" enable-background="new    " d="M315.973,49.773c16.553,15.566-5.195,31.982-14.614,46.416
	c-10.264,15.703-16.509,33.662-27.588,49.785c-6.045,8.789-14.502,16.553-20.781,25.664c-6.045,8.75-6.899,19.219-12.866,27.08
	c-4.893,6.455-14.902,12.783-20.127,2.002C205.485,170.818,307.574,41.863,315.973,49.773z"/>
<path fill="#1C1E1E" d="M185.402,374.852c-4.146,0-7.876-1.631-11.079-4.844c-13.857-13.867-13.965-52.744-13.96-54.395
	c0.073-4.482,1.934-109.932,11.123-134.824c8.213-22.246,29.683-51.885,54.702-75.508c30.044-28.369,60.547-43.994,85.889-43.994
	c10.293,0,19.834,2.549,28.364,7.568c37.48,22.07,52.295,53.018,44.028,91.982c-11.626,54.824-66.968,112.764-98.921,142.422
	c-44.502,41.299-88.588,70.371-98.222,71.475C186.676,374.813,186.032,374.852,185.402,374.852z M312.076,62.781
	c-56.079,0-123.818,76.895-139.189,118.525c-9.097,24.658-11.011,133.232-11.03,134.326c0,0.381,0.107,39.883,13.525,53.32
	c3.359,3.359,7.314,4.814,11.772,4.297c9.438-1.084,53.09-29.99,97.373-71.094c31.821-29.531,86.934-87.207,98.477-141.631
	c8.115-38.262-6.46-68.672-43.325-90.381C331.383,65.262,322.096,62.781,312.076,62.781z"/>
<path fill="#1C1E1E" d="M185.392,367.918h-0.005c-3.755,0-7.095-1.475-9.917-4.365c-11.89-12.178-11.226-45.654-11.191-47.07
	c0.22-4.248,5.405-103.691,9.6-116.729c11.436-35.479,70.156-103.662,120.444-103.662c8.936,0,17.188,2.217,24.536,6.592
	c32.026,19.043,44.81,45.703,37.983,79.238c-9.663,47.51-57.041,97.744-84.424,123.457c-38.643,36.289-76.113,61.191-84.931,62.393
	C186.774,367.869,186.071,367.918,185.392,367.918z M294.322,97.596c-49.658,0-107.7,67.49-119.018,102.617
	c-4.136,12.852-9.473,115.293-9.526,116.328c-0.01,0.313-0.684,34.238,10.762,45.967c2.534,2.588,5.508,3.906,8.848,3.906h0.005
	c0.61,0,1.25-0.039,1.89-0.127c18.071-2.461,151.391-102.559,168.095-184.658c6.68-32.852-5.859-58.975-37.285-77.666
	C310.982,99.734,302.984,97.596,294.322,97.596z"/>
<path fill="#1C1E1E" d="M183.756,361.688L183.756,361.688c-2.578,0-4.878-1.035-6.826-3.086c-9.414-9.854-8.105-40.4-8.047-41.699
	c0.269-3.574,6.514-87.217,10.127-97.939c5.264-15.605,20.205-36.152,38.056-52.354c21.138-19.18,43.086-29.746,61.792-29.746
	c7.993,0,15.43,1.914,22.114,5.693c25.386,14.336,38.691,32.07,39.551,52.705c1.084,26.074-17.705,57.197-55.84,92.5
	c-31.514,29.18-69.531,55.029-92.246,70.479l-3.198,2.139l-3.745,1.152C184.909,361.639,184.323,361.688,183.756,361.688z
	 M278.858,138.367c-41.763,0-88.823,52.598-98.432,81.074c-3.555,10.537-9.98,96.689-10.049,97.559
	c-0.01,0.283-1.338,31.172,7.637,40.576c1.68,1.758,3.56,2.607,5.742,2.607l0,0c0.469,0,0.952-0.039,1.445-0.117l3.486-1.084
	l2.905-1.982c44.863-30.508,149.917-101.953,147.436-161.67c-0.835-20.088-13.887-37.402-38.794-51.475
	C293.78,140.213,286.588,138.367,278.858,138.367z"/>
<path fill="#1C1E1E" d="M187.042,353.387c0,0,0,0-0.005,0c-9.409,0-11.025-25.732-11.089-26.836
	c0.005-2.471,0.156-59.736,2.368-67.373c3.315-11.465,14.053-27.08,27.354-39.785c9.111-8.701,27.187-23.291,45.874-23.291
	c4.966,0,9.648,1.064,13.916,3.164c17.397,8.564,26.143,20.537,26.001,35.605c-0.239,25.527-26.162,55.244-47.866,75.674
	c-24.658,23.213-49.672,40.225-53.872,42.197C188.805,353.172,187.902,353.387,187.042,353.387z M251.544,197.596
	c-30.566,0-65.805,41.318-71.792,61.992c-2.148,7.441-2.31,66.328-2.31,66.924c0.415,7.031,2.949,25.371,9.6,25.381l0,0
	c0.64,0,1.328-0.176,2.041-0.508c4.585-2.148,30.087-19.902,53.481-41.934c21.494-20.225,47.168-49.6,47.402-74.6
	c0.132-14.434-8.335-25.957-25.171-34.248C260.738,198.611,256.28,197.596,251.544,197.596z"/>
<path fill="#1C1E1E" d="M189.787,346.99h-0.005c-7.451,0-9.097-17.139-9.263-19.092c0.005-1.641,0.117-38.613,1.484-43.574
	c3.877-14.004,25.703-40.908,45.38-40.908c3.101,0,6.025,0.703,8.691,2.07c11.46,5.908,17.705,13.623,18.555,22.939
	c2.495,27.266-40.859,60.82-61.694,76.953l-1.88,1.455l-0.161,0.029C190.519,346.951,190.148,346.99,189.787,346.99z
	 M227.384,244.92c-18.691,0-40.263,26.533-43.935,39.805c-1.318,4.775-1.431,42.725-1.431,43.105
	c0.41,4.873,2.607,17.666,7.764,17.666c0.005,0,0.005,0,0.005,0c0.2,0,0.41-0.02,0.62-0.059l1.611-1.25
	c19.013-14.707,63.544-49.18,61.123-75.625c-0.806-8.77-6.777-16.084-17.749-21.738C232.94,245.555,230.245,244.92,227.384,244.92z"
	/>
<g>
	<path fill="#867269" d="M59.533,113.074c70.039-36.348,167.963,81.367,182.983,139.814c4.556,17.715,9.023,154.082,3.516,155.605
		c-2.393-1.465-7.046,74.951-33.574,65.391C168.551,457.967-121.234,206.873,59.533,113.074z"/>
	<path fill="#1C1E1E" d="M216.92,475.457c-1.523,0-3.11-0.293-4.717-0.869C180.221,462.996,7.599,318.973,0.241,206.805
		c-2.686-40.947,17.148-72.705,58.945-94.395c8.843-4.59,18.511-6.914,28.735-6.914c39.81,0,78.208,34.131,97.554,54.473
		c27.817,29.258,51.035,66.523,57.768,92.734c2.393,9.307,4.604,49.316,5.552,84.043c0.527,19.238,0.669,36.748,0.4,49.297
		c-0.469,21.875-1.948,22.871-2.886,23.145c-0.43,0.977-1.123,4.951-1.851,9.15C241.231,436.883,234.518,475.457,216.92,475.457z
		 M87.921,106.99c-9.98,0-19.419,2.275-28.047,6.748c-41.221,21.387-60.781,52.666-58.14,92.969
		c7.319,111.602,179.141,254.932,210.976,266.475c1.44,0.518,2.861,0.781,4.209,0.781c16.338,0,22.905-37.744,26.064-55.879
		c1.519-8.74,1.836-10.234,2.822-10.352c4.204-5.566,0.869-135.664-4.014-154.658c-6.68-25.977-29.746-62.979-57.407-92.07
		C165.207,140.828,127.174,106.99,87.921,106.99z"/>
</g>
<path fill="#736057" d="M42.384,207.273c-1.587-6.445-1.494-56.68-14.546-52.08c-4.473,1.582-10.645,13.555-13.149,17.49
	c-7.69,12.08-13.779,26.357-11.44,40.967c1.309,8.174,4.604,15.869,7.285,23.242c4.36,12.002,11.284,16.055,18.56,25.215
	c6.66,8.389,8.516,20.557,15.347,29.609c5.288,7.012,13.618,12.529,18.711,19.814c6.67,9.561,10.322,19.043,19.126,27.354
	c9.629,9.102,14.824,21.504,24.766,31.025c7.773,7.451,16.123,13.789,23.54,21.621c4.692,4.961,15.825,18.516,22.451,19.502
	c21.211,3.164-8.892-41.162-12.676-48.584c-9.785-19.219-28.32-31.846-39.053-50.195c-10.952-18.73-23.257-35.664-35.43-53.672
	C55.636,243.436,46.75,224.949,42.384,207.273z"/>
<path fill="#B59787" d="M24.84,166.629c-1.26,27.842,4.058,57.881,21.494,79.746c10.176,12.773,16.87,29.287,25.298,43.34
	c8.823,14.697,17.925,29.238,26.279,44.219c7.578,13.584,18.823,23.623,28.354,35.752c7.163,9.121,14.106,18.535,22.085,27.168
	c18.135,19.629,39.766,42.188,63.115,55.43c7.217,4.092,8.911,5.654,10.63-2.686c2.441-11.826,1.025-25.918,2.036-38.057
	c2.139-25.771,4.971-51.719,2.451-77.568c-2.183-22.422-4.492-45.313-8.638-66.855c-2.134-11.074-5.244-21.26-8.267-32.373
	c-2.631-9.658-4.765-20.391-9.633-29.531c-12.725-23.887-33.442-49.883-52.915-68.252c-6.816-6.426-14.038-13.184-21.509-18.896
	c-7.656-5.85-12.539-5.117-20.781-6.738c-16.26-3.203-32.886-5.41-48.403,5.469c-6.812,4.775-11.836,10.098-17.378,16.494
	C28.903,145.008,25.563,150.75,24.84,166.629z"/>
<path fill="#CAB6A0" d="M210.489,342.918c-1.074-15.234-6.801-30.176-8.691-45.273c-4.697-37.549-24.805-68.193-43.716-99.57
	c-14.102-23.408-23.652-48.301-45.176-66.953c-11.445-9.922-16.089-17.744-31.685-16.523c-9.233,0.713-19.419,0.996-23.218,10.479
	c-3.174,7.93-4.229,20.498-5.811,29.063c-2.769,15,0.078,23.984,6.157,38.564c2.373,5.703,3.916,10.674,5.571,16.533
	c3.589,12.725,11.973,19.15,19.263,29.365c2.671,3.75,4.922,9.102,6.611,13.438c4.634,11.895,10.771,21.807,17.178,33.037
	c9.028,15.83,14.238,33.408,23.594,48.496c11.577,18.682,30.337,31.582,40.469,50.566c11.982,22.441,23.477,43.799,45.4,60.146
	c8.56-5.713,3.516-21.377,2.324-29.209c-1.846-12.129,0.84-21.475-3.101-33.145C211.51,369.656,211.397,355.848,210.489,342.918z"/>
<path opacity="0.5" fill="#FBE4CF" enable-background="new    " d="M101.93,136.424c-17.446,14.57,3.291,32.246,11.841,47.207
	c9.316,16.279,14.482,34.58,24.59,51.328c5.513,9.131,13.496,17.393,19.229,26.846c5.513,9.102,5.747,19.609,11.235,27.803
	c4.507,6.729,14.121,13.643,19.98,3.193C205.06,263.807,110.778,129.041,101.93,136.424z"/>
<path fill="#1C1E1E" d="M213.956,468.689c-0.928,0-1.88-0.078-2.837-0.254c-9.555-1.67-51.845-33.301-93.823-77.158
	C87.155,359.773,35.338,298.66,26.974,243.25c-5.942-39.385,10.679-69.404,49.399-89.219c7.764-3.965,16.216-5.986,25.127-5.986
	c25.645,0,55.903,16.855,85.195,47.451c23.959,25.029,44.741,57.285,51.713,80.273c7.7,25.4,3.315,130.762,3.125,135.234
	C241.397,413.377,237.916,468.689,213.956,468.689z M101.5,149.549c-8.672,0-16.895,1.953-24.443,5.82
	c-38.086,19.482-54.438,48.975-48.599,87.656c8.301,55.01,59.902,115.84,89.922,147.217c41.772,43.643,83.638,75.088,92.998,76.719
	c0.874,0.156,1.738,0.234,2.578,0.234c22.559,0,26.05-55.703,26.084-56.26c0.044-1.084,4.561-109.58-3.066-134.736
	c-6.909-22.783-27.549-54.795-51.357-79.668C156.603,166.229,126.735,149.549,101.5,149.549z"/>
<path fill="#1C1E1E" d="M214.293,461.766c-0.947,0-1.929-0.098-2.925-0.293c-8.73-1.719-44.663-28.789-81.088-67.305
	c-25.811-27.285-70.137-80.234-76.973-128.232c-4.829-33.887,9.507-59.746,42.607-76.855c6.689-3.467,14.009-5.225,21.743-5.225
	c30.068,0,59.053,25.674,73.652,40.977c20.986,22.002,38.5,50.02,43.583,69.727c3.418,13.262,2.71,112.842,2.676,117.07
	C237.496,413.699,235.558,461.766,214.293,461.766z M117.658,185.359c-7.495,0-14.58,1.699-21.055,5.049
	c-32.476,16.787-46.543,42.129-41.812,75.322c11.816,82.939,138.975,190.752,156.865,194.277c0.898,0.176,1.787,0.264,2.637,0.264
	c19.834,0,21.763-48.184,21.777-48.672c0.01-1.016,0.742-103.594-2.627-116.66C224.02,258.387,167.345,185.359,117.658,185.359z"/>
<path fill="#1C1E1E" d="M216.012,455.643c-0.742,0-1.514-0.088-2.29-0.273l-0.098-0.029l-3.76-1.455l-2.871-2.207
	c-21.758-16.768-58.179-44.824-87.915-75.82c-35.981-37.49-52.896-69.678-50.269-95.645c2.075-20.547,16.411-37.461,42.603-50.273
	c6.045-2.959,12.603-4.453,19.492-4.453c25.625,0,49.609,20.176,61.621,32.197c17.47,17.49,31.645,39.375,36.113,55.752
	c2.974,10.908,4.258,94.785,4.312,98.35C232.926,413.592,232.203,455.643,216.012,455.643z M214.107,453.924
	c0.649,0.146,1.289,0.215,1.904,0.215c14.727,0,15.435-41.934,15.439-42.354c-0.015-0.85-1.333-87.227-4.258-97.959
	c-4.404-16.143-18.428-37.764-35.727-55.088c-20.464-20.479-41.968-31.758-60.562-31.758c-6.66,0-12.998,1.445-18.833,4.307
	c-25.698,12.568-39.751,29.082-41.772,49.082c-6.011,59.463,94.634,137.012,137.612,170.117l2.778,2.148L214.107,453.924z"/>
<path fill="#1C1E1E" d="M212.97,447.156c-0.957,0-1.948-0.273-2.944-0.811c-4.077-2.227-28.042-20.684-51.279-45.313
	c-20.459-21.68-44.58-52.881-43.306-78.379c0.752-15.049,10.195-26.484,28.066-34.004c3.779-1.592,7.832-2.393,12.046-2.393
	c31.88,0,66.313,44.893,71.396,67.354c1.753,7.754-1.479,64.932-1.621,67.363C225.201,422.088,222.13,447.156,212.97,447.156z
	 M155.553,287.752c-4.014,0-7.871,0.771-11.465,2.275c-17.3,7.275-26.431,18.281-27.153,32.705
	c-1.245,24.961,22.642,55.801,42.9,77.275c22.046,23.359,46.46,42.598,50.908,45.02c0.771,0.42,1.519,0.635,2.227,0.635
	c6.509,0,10.054-17.92,10.869-24.824c0.029-0.547,3.359-59.346,1.65-66.895c-2.612-11.553-12.832-28.242-25.419-41.523
	C191.334,303.211,173.937,287.752,155.553,287.752z"/>
<path fill="#1C1E1E" d="M210.582,440.604c-0.449,0-0.913-0.068-1.377-0.195l-0.161-0.049l-1.787-1.563
	c-19.844-17.324-61.143-53.389-57.036-80.459c1.401-9.248,8.091-16.582,19.878-21.807c2.383-1.055,4.937-1.582,7.588-1.582
	c19.746,0,40.986,29.023,44.091,43.555c1.074,5.039-1.001,41.943-1.089,43.516C220.411,423.982,217.818,440.604,210.582,440.604z
	 M209.776,439.012c0.273,0.068,0.542,0.098,0.806,0.098c5.039,0,7.93-12.441,8.618-17.236c0.015-0.322,2.148-38.213,1.113-43.057
	c-3.062-14.316-24.257-42.373-42.626-42.373c-2.441,0-4.79,0.488-6.978,1.455c-11.294,5-17.686,11.953-19.009,20.664
	c-3.979,26.26,38.433,63.291,56.543,79.111L209.776,439.012z"/>
<linearGradient id="ian_symbols_0b92ac1d9dcc92e4e1eda68b99870d43" gradientUnits="userSpaceOnUse" x1="-39184.7188" y1="-40876.8867" x2="-39239.5117" y2="-40726.3359" gradientTransform="matrix(0.118 -0.0646 0.0646 0.118 7522.7681 2353.5488)">
	<stop  offset="0.236" style="stop-color:#F3F2EA"/>
	<stop  offset="1" style="stop-color:#E8E6E1"/>
</linearGradient>
<path fill="url(#ian_symbols_0b92ac1d9dcc92e4e1eda68b99870d43)" stroke="#ADA9AB" stroke-width="0.4993" d="M250.24,82.576c0.137-0.967,2.324-1.797,2.271-3.262
	c-0.049-1.318,0.42-4.775,0.674-6.768c0.259-1.992,1.821-4.355,3.418-5.742c1.602-1.377,5.381-4.619,6.948-5.146
	c1.563-0.518,6.074-1.807,6.074-1.807l-8.799,17.441c0,0-8.696,7.197-9.556,7.168C249.571,84.393,250.309,82.117,250.24,82.576
	L250.24,82.576z"/>
<linearGradient id="ian_symbols_246265e87990a924e916c1841a555dee" gradientUnits="userSpaceOnUse" x1="-39115.6094" y1="-40872.875" x2="-39140.2109" y2="-40805.2852" gradientTransform="matrix(0.118 -0.0646 0.0646 0.118 7522.7681 2353.5488)">
	<stop  offset="0.236" style="stop-color:#F3F2EA"/>
	<stop  offset="1" style="stop-color:#E8E6E1"/>
</linearGradient>
<path fill="url(#ian_symbols_246265e87990a924e916c1841a555dee)" stroke="#ADA9AB" stroke-width="0.4993" d="M260.655,68.309c0,0-2.085-1.338-1.011-3.496
	c1.064-2.168,1.519-4.219,3.193-4.453c1.67-0.244,1.431-1.914,2.91-2.5c1.484-0.586,1.152,0.049,3.169-0.381
	s3.584,1.191,4.468,1.162c0.879-0.029,2.651,2.373,2.651,2.373L260.655,68.309L260.655,68.309z"/>
<linearGradient id="ian_symbols_eba9e6151c7d9294298c54d6e99b15c9" gradientUnits="userSpaceOnUse" x1="-39123.8164" y1="-40790.9063" x2="-38956.3516" y2="-40790.9063" gradientTransform="matrix(0.118 -0.0646 0.0646 0.118 7522.7681 2353.5488)">
	<stop  offset="0.3146" style="stop-color:#F3F2EA"/>
	<stop  offset="1" style="stop-color:#E4D7B6"/>
</linearGradient>
<path fill="url(#ian_symbols_eba9e6151c7d9294298c54d6e99b15c9)" stroke="#ADA9AB" stroke-width="0.4993" d="M270.846,61.834c0,0-0.757-1.387-0.063-1.768
	s-1.025-1.465-0.005-2.48c1.025-1.006,1.406-0.313,2.461-0.439s1.719-1.396,3.984-2.188c2.271-0.791,2.949,0.869,4.272,0.82
	c1.328-0.049,0.933-1.191,2.256-1.24s1.831,1.699,3.252,1.826c1.416,0.127,5.723,1.826,6.47,2.764
	c0.742,0.947,3.965,4.365,3.965,4.365l-22.061,1.26l-4.526-2.93L270.846,61.834z"/>
<linearGradient id="ian_symbols_42263c1bbecfb8e499c0d5a675da96fa" gradientUnits="userSpaceOnUse" x1="-40664.1563" y1="-37384.8906" x2="-40717.3945" y2="-37238.6367" gradientTransform="matrix(0.1203 -0.0602 0.0634 0.1267 7523.0273 2353.5845)">
	<stop  offset="0.236" style="stop-color:#735024"/>
	<stop  offset="1" style="stop-color:#9F793D"/>
</linearGradient>
<path fill="url(#ian_symbols_42263c1bbecfb8e499c0d5a675da96fa)" d="M251.041,83.65c0,0,1.729-3.525,2.881-4.707c1.152-1.191,2.515-3.506,2.881-4.707
	c0.366-1.211,1.235-4.502,1.841-5.625c0.605-1.113,0.815-2.236,1.587-3.037c0.767-0.791,6.646-3.486,6.646-3.486l5.864-1.338
	c0,0-8.501,5.479-9.517,5.781c-1.011,0.303-1.157,0.781-2.993,2.93c-1.836,2.139-1.851,5.215-2.832,7.129
	c-0.977,1.924-4.116,5.732-4.8,6.689s-0.596,1.523-0.596,1.523L251.041,83.65L251.041,83.65L251.041,83.65z"/>
<linearGradient id="ian_symbols_abf9ea3b8ae005d451b06c78cf53a682" gradientUnits="userSpaceOnUse" x1="-40664.0547" y1="-37381.1836" x2="-40717.2852" y2="-37234.9375" gradientTransform="matrix(0.1203 -0.0602 0.0634 0.1267 7523.0273 2353.5845)">
	<stop  offset="0.236" style="stop-color:#735024"/>
	<stop  offset="1" style="stop-color:#9F793D"/>
</linearGradient>
<path fill="url(#ian_symbols_abf9ea3b8ae005d451b06c78cf53a682)" d="M251.285,84.109c0,0,1.733-3.525,2.886-4.707c1.152-1.191,2.515-3.506,2.881-4.717
	c0.366-1.201,1.24-4.492,1.846-5.615c0.601-1.113,0.815-2.246,1.582-3.037s5.581-2.793,5.581-2.793l6.812-1.631l0.117-0.4
	c0,0-8.501,5.479-9.517,5.781c-1.011,0.303-1.157,0.781-2.993,2.92c-1.836,2.148-1.851,5.215-2.827,7.139
	c-0.986,1.914-4.116,5.732-4.805,6.689c-0.684,0.947-0.596,1.523-0.596,1.523L251.285,84.109L251.285,84.109z"/>
<linearGradient id="ian_symbols_63f5495666c5f2544d7ef21e19dd0135" gradientUnits="userSpaceOnUse" x1="-40661.2813" y1="-37384.6875" x2="-40717.1055" y2="-37231.3203" gradientTransform="matrix(0.1203 -0.0602 0.0634 0.1267 7523.0273 2353.5845)">
	<stop  offset="0.236" style="stop-color:#735024"/>
	<stop  offset="1" style="stop-color:#9F793D"/>
</linearGradient>
<path fill="url(#ian_symbols_63f5495666c5f2544d7ef21e19dd0135)" d="M251.539,84.568c0,0,1.729-3.525,2.881-4.717c1.152-1.182,2.515-3.496,2.881-4.707
	c0.366-1.201,1.24-4.502,1.846-5.615c0.601-1.123,0.815-2.246,1.582-3.037s5.581-2.793,5.581-2.793l6.055-3.027l0.879,0.996
	c0,0-8.506,5.469-9.517,5.771c-1.016,0.303-1.157,0.791-2.993,2.93c-1.841,2.148-1.855,5.215-2.832,7.139
	c-0.981,1.914-4.116,5.732-4.8,6.68c-0.688,0.957-0.601,1.523-0.601,1.523L251.539,84.568L251.539,84.568z"/>
<linearGradient id="ian_symbols_300c4cfdb31c0e54ad3dbe9d7100c211" gradientUnits="userSpaceOnUse" x1="-40631.5938" y1="-37368.2031" x2="-40687.418" y2="-37214.832" gradientTransform="matrix(0.1203 -0.0602 0.0634 0.1267 7523.0273 2353.5845)">
	<stop  offset="0.236" style="stop-color:#F3F2EA"/>
	<stop  offset="1" style="stop-color:#E8E6E1"/>
</linearGradient>
<path fill="url(#ian_symbols_300c4cfdb31c0e54ad3dbe9d7100c211)" stroke="#ADA9AB" stroke-width="0.4993" d="M252.496,85.223c0,0,1.729-3.516,2.876-4.707
	c1.152-1.182,2.515-3.496,2.881-4.707c0.371-1.201,1.24-4.502,1.846-5.615c0.605-1.123,0.815-2.246,1.582-3.037
	s5.586-2.793,5.586-2.793l6.05-3.027l8.311,1.123c0,0-15.938,5.342-16.948,5.645c-1.016,0.303-1.157,0.791-2.993,2.93
	c-1.841,2.148-1.855,5.215-2.837,7.139c-0.977,1.914-4.111,5.732-4.795,6.68c-0.688,0.957-0.596,1.523-0.596,1.523L252.496,85.223
	L252.496,85.223z"/>
<linearGradient id="ian_symbols_6b2d097c03c687c475dd4177bccc4ed3" gradientUnits="userSpaceOnUse" x1="-40637.8555" y1="-37377.7578" x2="-40693.707" y2="-37224.3047" gradientTransform="matrix(0.1203 -0.0602 0.0634 0.1267 7523.0273 2353.5845)">
	<stop  offset="0.236" style="stop-color:#735024"/>
	<stop  offset="1" style="stop-color:#9F793D"/>
</linearGradient>
<path fill="url(#ian_symbols_6b2d097c03c687c475dd4177bccc4ed3)" d="M251.993,84.314c0,0,1.729-3.525,2.881-4.707c1.152-1.191,2.515-3.506,2.881-4.707
	c0.371-1.211,1.24-4.502,1.846-5.625c0.601-1.113,0.815-2.246,1.582-3.037s5.586-2.793,5.586-2.793s4.614-3.086,6.045-3.018
	c1.436,0.068,6.694,1.992,6.694,1.992s-14.316,4.473-15.327,4.775c-1.016,0.303-1.162,0.781-2.998,2.93
	c-1.831,2.139-1.851,5.215-2.827,7.129c-0.981,1.924-4.116,5.732-4.8,6.689c-0.688,0.957-0.596,1.523-0.596,1.523L251.993,84.314
	L251.993,84.314z"/>
<linearGradient id="ian_symbols_07579084efa482b4c9673025d69e2b4b" gradientUnits="userSpaceOnUse" x1="-39154.0039" y1="-40851.1875" x2="-39206.3516" y2="-40707.3633" gradientTransform="matrix(0.118 -0.0646 0.0646 0.118 7522.7681 2353.5488)">
	<stop  offset="0.236" style="stop-color:#F3F2EA"/>
	<stop  offset="1" style="stop-color:#E8E6E1"/>
</linearGradient>
<path fill="url(#ian_symbols_07579084efa482b4c9673025d69e2b4b)" stroke="#ADA9AB" stroke-width="0.4993" d="M251.495,84.119c0,0,1.655-3.477,2.773-4.688
	c1.118-1.201,2.432-3.496,2.778-4.678c0.342-1.172,1.157-4.385,1.733-5.498c0.581-1.104,0.771-2.197,1.519-2.998
	c0.747-0.811,5.474-2.998,5.474-2.998s5.62-2.334,7.539-1.924c1.924,0.42,5.884,2.158,5.884,2.158s-14.922,3.154-15.918,3.496
	c-0.996,0.352-1.133,0.82-2.915,2.988c-1.782,2.158-1.748,5.107-2.69,7.002c-0.938,1.895-3.975,5.732-4.639,6.689
	s-0.566,1.494-0.566,1.494L251.495,84.119L251.495,84.119z"/>
<linearGradient id="ian_symbols_d559270cd4913b248d0728bc67bcb582" gradientUnits="userSpaceOnUse" x1="-39147.5352" y1="-40838.0156" x2="-39204.7617" y2="-40680.7813" gradientTransform="matrix(0.118 -0.0646 0.0646 0.118 7522.7681 2353.5488)">
	<stop  offset="0.236" style="stop-color:#735024"/>
	<stop  offset="1" style="stop-color:#9F793D"/>
</linearGradient>
<path fill="url(#ian_symbols_d559270cd4913b248d0728bc67bcb582)" d="M260.948,73.26c0.952-1.514,3.794-5.488,4.985-6.924c1.187-1.445,7.778-3.701,7.778-3.701
	s7.9-1.865,7.637-0.537c-0.259,1.328-10.752,7.803-9.546,8.926s0.781,2.148,1.611,3.662c0.835,1.523-0.034,5.361-0.034,5.361
	l-18.325,8.047l-2.798-2.227c0,0-0.376-1.768,0.742-2.969c1.118-1.211,0.361-0.791,1.631-2.08
	C255.904,79.529,259.996,74.764,260.948,73.26L260.948,73.26z"/>
<linearGradient id="ian_symbols_95aa3e605596c714919a1686416958cf" gradientUnits="userSpaceOnUse" x1="-39330.8594" y1="-40756.082" x2="-39069.0938" y2="-40756.082" gradientTransform="matrix(0.118 -0.0646 0.0646 0.118 7522.7681 2353.5488)">
	<stop  offset="0.0056" style="stop-color:#C0C0AF"/>
	<stop  offset="0.8371" style="stop-color:#F2EEEA"/>
</linearGradient>
<path fill="url(#ian_symbols_95aa3e605596c714919a1686416958cf)" stroke="#ADA9AB" stroke-width="0.4993" d="M261.363,73.973c0.947-1.514,3.452-5.244,4.639-6.689
	s4.243-2.725,4.243-2.725s9.521-3.467,9.258-2.139c-0.259,1.328,1.035,5.166,2.241,6.289c1.201,1.113-6.021,4.912-5.186,6.436
	c0.83,1.523-2.93,5.361-2.93,5.361l-18.325,8.047l-2.798-2.227c0,0-0.376-1.768,0.742-2.979c1.123-1.201,0.361-0.781,1.631-2.07
	C256.153,79.988,260.406,75.477,261.363,73.973L261.363,73.973z"/>
<linearGradient id="ian_symbols_771977bc782fe1d471220263e53a8c62" gradientUnits="userSpaceOnUse" x1="-39026.9141" y1="-40689.25" x2="-39026.9141" y2="-40815.9141" gradientTransform="matrix(0.118 -0.0646 0.0646 0.118 7522.7681 2353.5488)">
	<stop  offset="0.0056" style="stop-color:#C0C0AF"/>
	<stop  offset="0.8371" style="stop-color:#F2EEEA"/>
</linearGradient>
<path fill="url(#ian_symbols_771977bc782fe1d471220263e53a8c62)" stroke="#ADA9AB" stroke-width="0.4993" d="M281.007,59.666c-0.747,0.801-0.762,0.41-1.343,1.523
	c-0.576,1.104-1.323,1.914-1.431,3.154c-0.112,1.25,1.523,1.338,1.245,2.285c-0.273,0.938-2.046,1.318-1.157,2.217
	c0.884,0.898,6.66,1.689,6.66,1.689l11.03,0.293l-5.479-7.48l-6.65-3.477C283.883,59.871,281.754,58.855,281.007,59.666
	L281.007,59.666z"/>
<linearGradient id="ian_symbols_51a60da810afaf84f934e973ddcd7576" gradientUnits="userSpaceOnUse" x1="-39070.2656" y1="-40632.5703" x2="-39070.2656" y2="-40765.7109" gradientTransform="matrix(0.118 -0.0646 0.0646 0.118 7522.7681 2353.5488)">
	<stop  offset="0.0056" style="stop-color:#C0C0AF"/>
	<stop  offset="0.8371" style="stop-color:#F2EEEA"/>
</linearGradient>
<path fill="url(#ian_symbols_51a60da810afaf84f934e973ddcd7576)" stroke="#ADA9AB" stroke-width="0.4993" d="M280.919,67.811c1.455-0.596,3.506,0.264,4.443,0.537
	c0.942,0.273,7.241,2.764,7.241,2.764l-4.644,12.813l-10.767,0.557c0,0-3.135-5-3.105-6.406c0.024-1.396,0.435-4.98,0.435-4.98
	s0.938-1.895,1.904-3.018S279.469,68.406,280.919,67.811L280.919,67.811z"/>
<linearGradient id="ian_symbols_243a4ae3f2f2850455eda60cde7c8a36" gradientUnits="userSpaceOnUse" x1="-39218.7422" y1="-40667.3672" x2="-39218.7422" y2="-40744.6719" gradientTransform="matrix(0.118 -0.0646 0.0646 0.118 7522.7681 2353.5488)">
	<stop  offset="0.0056" style="stop-color:#C0C0AF"/>
	<stop  offset="0.8371" style="stop-color:#F2EEEA"/>
</linearGradient>
<path fill="url(#ian_symbols_243a4ae3f2f2850455eda60cde7c8a36)" stroke="#ADA9AB" stroke-width="0.4993" d="M254.708,87.098c0,0,1.357-1.133,2.476-2.344
	c1.118-1.201,3.457-3.076,5.586-4.238s4.341-2.178,5.811-2.393c1.465-0.205,6.123-0.088,6.812,1.23
	c0.586,1.113-9.219,9.17-4.634,5.293l-11.055,9.404L254.708,87.098L254.708,87.098z"/>
<linearGradient id="ian_symbols_574719e8ae2b5f24d101088bc0c4e1e8" gradientUnits="userSpaceOnUse" x1="-38926.668" y1="-40627.6914" x2="-38998.332" y2="-40824.5977" gradientTransform="matrix(0.118 -0.0646 0.0646 0.118 7522.7681 2353.5488)">
	<stop  offset="0.3146" style="stop-color:#F3F2EA"/>
	<stop  offset="1" style="stop-color:#E4D7B6"/>
</linearGradient>
<path fill="url(#ian_symbols_574719e8ae2b5f24d101088bc0c4e1e8)" stroke="#ADA9AB" stroke-width="0.4993" d="M284.137,62.498c-0.225-1.855-1.885-2.725-1.274-3.057
	c0.605-0.332,2.036,0.469,3.281,0.576s2.852,1.602,3.862,1.641s3.54-0.752,4.717-0.41s5.083,0.977,6.675,2.08
	s2.705,6.035,3.223,7.334c0.513,1.299,0.708,2.383,0.903,3.457c0.195,1.084-0.962,3.301-0.962,3.301s-2.148-1.406-3.896-2.422
	c-1.743-1.025-6.836-2.383-8.057-3.896C291.388,69.598,284.361,64.344,284.137,62.498L284.137,62.498z"/>
<linearGradient id="ian_symbols_c09b75e654b33174edc0b695f223cc75" gradientUnits="userSpaceOnUse" x1="-38994.0898" y1="-40580.8789" x2="-39059.0859" y2="-40759.4688" gradientTransform="matrix(0.118 -0.0646 0.0646 0.118 7522.7681 2353.5488)">
	<stop  offset="0.1404" style="stop-color:#F3F2EA"/>
	<stop  offset="1" style="stop-color:#E4D7B6"/>
</linearGradient>
<path fill="url(#ian_symbols_c09b75e654b33174edc0b695f223cc75)" stroke="#ADA9AB" stroke-width="0.4993" d="M286.134,82.752c-1.304-1.66-5.884-7.852-5.884-7.852
	s-1.44-3.359-0.073-4.111c1.367-0.742,1.978-1.084,3.667-1.602c1.685-0.537,4.541,1.064,6.021,1.24
	c1.479,0.186,2.988,1.133,5.43,1.973c2.432,0.85,5.205,2.295,6.563,3.33s2.754,1.055,3.169,1.816c0.42,0.762-1.128,2.998-2.72,6.24
	c-1.587,3.232-5.757,5.723-6.602,5.986s-8.271-5.352-9.575-7.012L286.134,82.752z"/>
<linearGradient id="ian_symbols_d568c91438059224b9fb2c2a7518bf37" gradientUnits="userSpaceOnUse" x1="-39346.2891" y1="-40553.7734" x2="-39346.2891" y2="-40787.3867" gradientTransform="matrix(0.118 -0.0646 0.0646 0.118 7522.7681 2353.5488)">
	<stop  offset="0.2978" style="stop-color:#F3F2EA"/>
	<stop  offset="1" style="stop-color:#E4D7B6"/>
</linearGradient>
<path fill="url(#ian_symbols_d568c91438059224b9fb2c2a7518bf37)" stroke="#ADA9AB" stroke-width="0.4993" d="M249.469,90.164c-0.044,1.016-1.26,1.68-1.367,2.93
	c-0.107,1.24,0.947,2.441,0.781,4.307c-0.161,1.875-0.63,3.906-0.405,5.762s0.562,4.639,1.294,5.615
	c0.737,0.986,2.813,2.617,4.365,2.559c1.548-0.059,6.572-0.635,7.568-0.977c0.996-0.352,1.685-2.705,1.694-4.492
	s-4.824-14.951-4.78-15.957c0.039-1.016-0.835-1.523-1.489-2.354c-0.649-0.83-2.573-0.371-3.306-1.357
	c-0.737-0.977-3.496-4.209-2.886-4.541s0.791,0.352,0.791,0.352s0.537-0.098,0.762-0.41c0.22-0.322-0.21-1.465-0.903-1.289
	c-0.693,0.186-0.776,0.029-1.216,0.664c-0.444,0.645-0.327,3.74-0.439,4.99C249.825,87.205,249.508,89.158,249.469,90.164
	L249.469,90.164z"/>
<linearGradient id="ian_symbols_af22b7b8270bf364091927abc23bd7eb" gradientUnits="userSpaceOnUse" x1="-39191.0938" y1="-40526.8125" x2="-39191.0938" y2="-40732.0195" gradientTransform="matrix(0.118 -0.0646 0.0646 0.118 7522.7681 2353.5488)">
	<stop  offset="0.1404" style="stop-color:#F3F2EA"/>
	<stop  offset="1" style="stop-color:#E4D7B6"/>
</linearGradient>
<path fill="url(#ian_symbols_af22b7b8270bf364091927abc23bd7eb)" stroke="#ADA9AB" stroke-width="0.4993" d="M264.967,81.287c1.509-1.221,6.104-0.771,7.168-1.348
	c1.064-0.586,0.972-1.123,2.368-1.104c1.396,0.029,4.526,2.861,6.494,3.564s5.22,0.508,6.089,1.016
	c0.874,0.508,2.788,1.836,3.828,2.646c1.035,0.82,4.443,2.715,4.79,3.701c0.352,1.006-1.211,5.02-3.257,6.338
	c-2.046,1.309-9.365,4.922-11.035,5.84c-1.675,0.908-1.987,2.861-3.208,3.535c-1.216,0.664-2.944,0.029-4.097,0.459
	c-1.143,0.43-1.367,0.752-2.974,1.426c-1.602,0.684-8.506,2.881-9.434,2.988c-0.928,0.117-3.159-5.771-2.5-6.729
	c0.664-0.957-1.543-6.074-0.728-7.119c0.815-1.035,0.493-3.428,1.406-3.926c0.913-0.508,0.537-0.098,1.035-1.357
	s-1.069-3.77-0.659-5.176c0.415-1.416,3.208-3.535,4.717-4.756H264.967L264.967,81.287z"/>
</svg>
